<?xml version="1.0" encoding="iso-8859-1"?>
<!-- Generator: Adobe Illustrator 19.0.0, SVG Export Plug-In . SVG Version: 6.00 Build 0)  -->
<svg version="1.1" id="Capa_1" xmlns="http://www.w3.org/2000/svg" xmlns:xlink="http://www.w3.org/1999/xlink" x="0px" y="0px"
	 viewBox="0 0 512.003 512.003" style="enable-background:new 0 0 512.003 512.003;" xml:space="preserve">
<path style="fill:#F2427F;" d="M308.924,441.966v-21.018v-31.537h-59.975v52.555c0,12.672,10.272,22.944,22.943,22.944h14.087
	C298.652,464.911,308.924,454.638,308.924,441.966z"/>
<path style="fill:#FFD41D;" d="M324.526,364.035v-20.067c0-21.114,8.965-41.196,24.569-55.419
	c27.295-24.876,44.426-60.713,44.426-100.555c0-62.639-42.34-115.386-99.961-131.191c-56.715,15.613-98.966,67.279-100.128,128.549
	c-0.777,40.998,16.589,77.955,44.609,103.387c15.562,14.124,24.363,34.214,24.363,55.229v20.068
	c0,14.015,11.362,25.377,25.377,25.377h11.369C313.166,389.412,324.526,378.05,324.526,364.035z"/>
<path style="fill:#FFFFFF;" d="M210.18,187.545c0-41.554,28.842-76.368,67.598-85.524c-6.512-1.539-13.302-2.356-20.283-2.356
	c-48.536,0-87.881,39.346-87.881,87.881c0,27.864,12.968,52.699,33.198,68.8c15.007,11.945,34.012,19.081,54.683,19.081
	c6.993,0,13.793-0.822,20.314-2.364c-12.778-3.016-24.485-8.802-34.431-16.717C223.148,240.244,210.18,215.409,210.18,187.545z"/>
<path style="fill:#0084FF;" d="M345.375,187.545c0-41.554-28.842-76.368-67.598-85.524c-38.756,9.157-67.598,43.971-67.598,85.524
	c0,27.864,12.968,52.699,33.198,68.8c9.945,7.916,21.653,13.702,34.431,16.717C316.549,263.893,345.375,229.087,345.375,187.545z"/>
<circle style="fill:#FF991F;" cx="255.806" cy="187.541" r="26.055"/>
<path style="fill:#FFFFFF;" d="M276.888,216.954c-6.043-2.167-12.575-3.356-19.394-3.356l0,0c-26.825,0-49.235,18.31-54.678,42.743
	c15.007,11.944,34.008,19.084,54.679,19.084c6.666,0,13.154-0.752,19.394-2.159c-13.111-2.955-25.116-8.833-35.284-16.924
	C245.664,238.12,259.162,223.311,276.888,216.954z"/>
<path style="fill:#FF991F;" d="M276.888,216.954c-17.726,6.355-31.224,21.166-35.284,39.387
	c10.168,8.092,22.173,13.969,35.284,16.924c13.111-2.955,25.116-8.833,35.284-16.924
	C308.113,238.12,294.614,223.311,276.888,216.954z"/>
<circle cx="257.491" cy="501.971" r="10.032"/>
<circle cx="257.491" cy="311.301" r="10.032"/>
<circle cx="70.994" cy="187.541" r="10.032"/>
<circle cx="441.009" cy="187.541" r="10.032"/>
<circle cx="418.027" cy="96.113" r="10.032"/>
<circle cx="362.201" cy="33.694" r="10.032"/>
<circle cx="255.806" cy="10.032" r="10.032"/>
<circle cx="156.664" cy="33.694" r="10.032"/>
<circle cx="96.885" cy="96.113" r="10.032"/>
<path d="M360.049,83.994c-28.05-27.662-65.166-42.607-104.635-42.045c-37.92,0.528-73.725,15.662-100.82,42.616
	c-27.096,26.955-42.415,62.68-43.134,100.597c-0.801,42.192,16.656,82.651,47.896,111.005
	c13.392,12.154,21.072,29.577,21.072,47.801v20.068c0,12.192,6.196,22.965,15.603,29.336v48.595
	c0,18.182,14.793,32.976,32.975,32.976h56.972c18.183,0,32.976-14.793,32.976-32.976v-48.595
	c9.407-6.371,15.602-17.144,15.602-29.336v-20.068c0-18.172,7.761-35.669,21.296-48.004c30.314-27.628,47.7-66.981,47.7-107.969
	C403.554,148.595,388.104,111.661,360.049,83.994z M298.893,441.966c0,7.12-5.792,12.913-12.913,12.913h-56.972
	c-7.119,0-12.912-5.792-12.912-12.913v-42.524h82.797V441.966z M342.34,281.134c-17.696,16.128-27.845,39.029-27.845,62.833v20.068
	c0,8.462-6.883,15.344-15.344,15.344h-31.625v-33.132c0-5.54-4.492-10.032-10.032-10.032c-5.539,0-10.032,4.491-10.032,10.032
	v33.132h-31.624c-8.462,0-15.345-6.884-15.345-15.344v-20.068c0-23.87-10.079-46.708-27.651-62.657
	c-26.95-24.461-42.011-59.367-41.32-95.768c1.275-67.18,56.979-122.596,124.174-123.532c0.604-0.008,1.207-0.013,1.811-0.013
	c33.338,0,64.689,12.843,88.456,36.281c24.202,23.867,37.53,55.729,37.53,89.716C383.491,223.351,368.492,257.3,342.34,281.134z"/>
<path d="M257.494,89.631c-53.989,0-97.912,43.923-97.912,97.912c0,5.54,4.492,10.032,10.032,10.032s10.032-4.491,10.032-10.032
	c0-42.926,34.923-77.849,77.849-77.849s77.849,34.923,77.849,77.849c0,5.54,4.492,10.032,10.032,10.032s10.032-4.491,10.032-10.032
	C355.407,133.556,311.483,89.631,257.494,89.631z"/>
<path d="M284.568,209.303c4.59-6.054,7.321-13.593,7.321-21.759c0-19.898-16.189-36.087-36.087-36.087s-36.087,16.189-36.087,36.087
	c0,8.693,3.091,16.679,8.231,22.915c-17.363,8.546-30.616,24.375-34.922,43.701c-0.835,3.747,0.542,7.641,3.544,10.032
	c17.482,13.912,38.549,21.266,60.925,21.266c22.378,0,43.445-7.354,60.926-21.266c3.002-2.391,4.379-6.285,3.544-10.032
	C317.457,233.926,303.14,217.525,284.568,209.303z M255.802,171.521c8.836,0,16.023,7.189,16.023,16.023
	s-7.188,16.023-16.023,16.023c-8.836,0-16.023-7.189-16.023-16.023C239.779,178.709,246.967,171.521,255.802,171.521z
	 M257.494,265.394c-15.545,0-30.293-4.462-43.037-12.965c6.594-17.007,23.761-28.799,43.037-28.799
	c19.278,0,36.444,11.791,43.038,28.799C287.788,260.932,273.04,265.394,257.494,265.394z"/>
<g>
</g>
<g>
</g>
<g>
</g>
<g>
</g>
<g>
</g>
<g>
</g>
<g>
</g>
<g>
</g>
<g>
</g>
<g>
</g>
<g>
</g>
<g>
</g>
<g>
</g>
<g>
</g>
<g>
</g>
</svg>
